<?xml version="1.0" standalone="no"?>
<!DOCTYPE svg PUBLIC "-//W3C//DTD SVG 20010904//EN"
 "http://www.w3.org/TR/2001/REC-SVG-20010904/DTD/svg10.dtd">
<svg version="1.0" xmlns="http://www.w3.org/2000/svg"
 width="260.000000pt" height="260.000000pt" viewBox="0 0 260.000000 260.000000"
 preserveAspectRatio="xMidYMid meet">
<metadata>
Created by potrace 1.14, written by Peter Selinger 2001-2017
</metadata>
<g transform="translate(0.000000,260.000000) scale(0.100000,-0.100000)"
fill="#000000" stroke="none">
<path d="M0 1300 l0 -1300 1300 0 1300 0 0 1300 0 1300 -1300 0 -1300 0 0
-1300z m1489 1075 c226 -37 425 -140 590 -304 111 -112 225 -298 237 -387 6
-47 3 -44 -31 36 -43 98 -148 253 -227 332 -74 73 -208 168 -302 212 -80 38
-218 75 -325 87 -293 33 -592 -66 -830 -276 -86 -77 -209 -250 -261 -370 -33
-76 -58 -87 -29 -12 185 473 683 762 1178 682z m-11 -80 c208 -34 375 -119
535 -274 139 -134 230 -293 284 -500 34 -126 38 -331 10 -461 -55 -253 -215
-495 -416 -630 -125 -83 -325 -160 -419 -160 -37 0 -76 -27 -122 -85 l-27 -34
-47 54 c-41 47 -53 55 -94 60 -72 10 -214 51 -286 84 -214 97 -390 272 -497
496 -72 150 -93 247 -92 430 0 129 4 164 26 249 64 241 226 476 415 605 221
150 474 207 730 166z m-1428 -840 c10 -12 10 -15 -4 -15 -9 0 -16 7 -16 15 0
8 2 15 4 15 2 0 9 -7 16 -15z m2515 -5 c10 -11 15 -23 12 -26 -10 -10 -35 3
-47 25 -15 28 10 29 35 1z m-2290 -929 c3 -5 -3 -17 -12 -27 -11 -11 -18 -13
-21 -5 -9 28 18 55 33 32z m1855 -201 c0 -5 -5 -10 -11 -10 -5 0 -7 5 -4 10 3
6 8 10 11 10 2 0 4 -4 4 -10z m-1885 -160 c0 -22 -29 -18 -33 3 -3 14 1 18 15
15 10 -2 18 -10 18 -18z m365 4 c0 -8 -5 -12 -10 -9 -6 4 -8 11 -5 16 9 14 15
11 15 -7z m1225 -64 c18 -19 17 -20 -1 -20 -20 0 -44 17 -44 32 0 15 27 8 45
-12z m566 -75 c-1 -15 -24 -12 -29 3 -3 9 2 13 12 10 10 -1 17 -7 17 -13z"/>
<path d="M1175 2266 c-5 -2 -43 -12 -84 -21 -401 -92 -701 -446 -753 -887 -20
-167 11 -337 92 -503 144 -297 401 -497 713 -554 43 -8 47 -7 42 8 -4 9 -11
30 -17 46 -5 17 -14 39 -19 50 -9 22 -28 102 -29 123 0 10 5 10 20 2 28 -15
25 -5 -11 38 -41 49 -100 160 -88 167 5 4 20 -20 34 -52 14 -32 44 -77 66 -99
42 -43 50 -82 16 -76 -14 2 -16 -3 -11 -30 4 -18 13 -43 20 -55 8 -12 14 -32
14 -43 0 -37 37 -94 92 -141 l54 -47 51 52 c54 54 83 102 83 136 0 11 6 31 14
43 7 12 16 37 20 55 5 27 3 32 -11 30 -34 -6 -24 32 21 83 25 28 54 73 63 100
10 27 21 49 26 49 20 0 -30 -107 -79 -167 -40 -49 -41 -53 -13 -46 20 6 21 3
15 -23 -19 -79 -27 -104 -36 -109 -6 -3 -10 -21 -10 -39 0 -17 -5 -37 -12 -44
-22 -22 0 -23 81 -2 187 47 310 113 437 233 185 174 286 377 316 633 26 228
-45 485 -193 700 -93 134 -248 258 -403 323 -131 54 -179 64 -351 67 -88 2
-164 2 -170 0z m103 -46 c41 -18 45 -19 68 -3 38 25 110 23 128 -3 15 -21 90
-62 171 -94 38 -15 41 -15 57 5 15 18 18 18 31 5 13 -13 13 -22 2 -65 -13 -48
-12 -50 17 -92 48 -71 81 -149 70 -170 -5 -10 -13 -42 -17 -70 -6 -45 -11 -55
-41 -74 -34 -21 -44 -39 -22 -39 6 0 20 -7 30 -17 31 -28 24 -99 -21 -203 -22
-50 -37 -98 -34 -105 6 -17 -15 -115 -30 -132 -5 -7 -20 -13 -33 -13 -28 0
-54 -51 -54 -105 0 -30 3 -33 41 -39 23 -4 53 -16 67 -26 25 -21 58 -27 47
-10 -7 12 30 50 50 50 22 0 19 -17 -4 -23 -30 -7 -30 -46 1 -79 14 -15 31 -28
37 -28 6 0 23 -13 37 -29 25 -29 26 -29 45 -10 23 23 58 25 85 4 18 -13 16
-14 -16 -9 -27 5 -42 1 -60 -15 -24 -20 -24 -20 -4 -21 12 0 32 -9 46 -19 l24
-20 27 28 c30 32 76 45 112 31 36 -14 31 -18 -21 -18 -36 1 -51 -4 -71 -24
l-25 -25 36 -28 c20 -15 36 -31 36 -36 0 -9 -89 41 -129 72 -13 11 -32 19 -42
19 -10 0 -33 18 -50 40 -18 22 -38 40 -44 40 -7 0 -19 7 -26 16 -7 9 -40 34
-72 55 -46 30 -68 39 -102 39 l-44 0 -7 45 c-5 37 -2 57 20 104 14 32 26 66
26 74 0 9 5 19 10 22 7 4 9 -2 4 -19 -4 -19 -2 -28 11 -32 30 -12 46 18 49 92
2 52 12 91 39 158 21 50 37 105 37 123 0 43 -27 59 -60 36 -22 -16 -23 -16
-17 1 4 10 12 49 19 87 6 38 15 69 21 69 5 0 7 -13 5 -29 -2 -17 -1 -28 4 -25
4 3 8 17 8 32 0 15 4 38 8 52 6 21 8 17 12 -25 l6 -50 8 46 c6 35 4 54 -10 85
-28 60 -27 61 6 24 32 -35 31 -34 -10 45 -23 44 -52 91 -65 105 -24 25 -24 25
-5 50 27 35 25 41 -12 28 -25 -9 -33 -8 -42 3 -13 17 -95 59 -115 59 -7 0 -27
12 -44 26 -24 20 -39 25 -68 22 -21 -2 -35 0 -33 4 3 5 11 8 19 8 8 0 17 5 20
10 9 15 -43 2 -79 -20 -28 -17 -30 -17 -55 0 -14 10 -37 22 -51 26 -22 6 -23
5 -11 -10 12 -14 10 -16 -16 -16 -17 0 -41 -9 -55 -19 -14 -11 -49 -26 -79
-34 -30 -9 -45 -16 -34 -16 35 -2 -5 -21 -45 -21 l-35 -1 25 -14 c22 -12 29
-11 55 5 17 10 47 21 67 25 20 4 45 14 55 22 10 8 12 12 6 8 -7 -3 -13 -2 -13
3 0 24 111 44 125 23 3 -6 -10 -8 -32 -6 l-38 5 33 -9 c18 -5 36 -12 40 -16 4
-4 -2 -5 -14 -1 -12 4 -32 2 -45 -3 l-24 -10 25 -1 c23 -1 22 -2 -11 -20 -21
-11 -58 -44 -84 -75 -27 -31 -71 -74 -99 -97 -46 -38 -45 -35 19 30 38 40 64
72 57 72 -6 0 -35 -26 -64 -57 -29 -31 -63 -67 -76 -80 -32 -34 -52 -88 -53
-142 -1 -43 -1 -44 -10 -16 -5 18 -5 43 0 63 12 40 -4 33 -23 -11 -8 -18 -15
-26 -15 -19 -2 22 25 75 58 116 37 46 41 74 5 31 -19 -22 -25 -25 -20 -10 6
20 6 20 -9 1 -12 -15 -15 -16 -15 -5 0 9 16 33 36 55 19 21 33 31 30 22 -4
-15 102 66 139 105 10 10 -29 -12 -70 -40 -26 -18 -40 -17 -25 2 11 13 8 15
-22 15 -19 0 -39 5 -46 12 -21 21 -13 -5 9 -28 l21 -22 -35 -39 c-18 -21 -48
-67 -65 -102 -35 -70 -38 -81 -20 -63 19 19 28 14 19 -10 -5 -13 -6 -48 -3
-78 5 -53 6 -54 17 -27 l12 29 21 -59 c39 -108 39 -114 3 -91 -26 16 -49 4
-57 -29 -5 -20 2 -55 24 -119 26 -73 31 -100 26 -137 -9 -63 15 -102 57 -93
25 5 30 2 35 -22 4 -15 18 -49 31 -75 16 -33 23 -61 21 -89 -3 -40 -3 -40 -48
-44 -24 -3 -53 -13 -65 -23 -11 -10 -36 -28 -57 -40 -20 -12 -39 -28 -42 -36
-3 -8 -12 -15 -20 -15 -8 0 -30 -18 -49 -40 -19 -22 -41 -40 -49 -40 -9 0 -21
-7 -29 -16 -17 -21 -128 -76 -142 -71 -7 2 7 14 31 26 23 12 42 25 42 30 0 25
-54 51 -104 51 -37 0 -47 3 -36 10 8 5 35 10 59 10 37 0 49 -5 76 -34 l33 -35
23 25 c12 13 29 24 37 24 12 0 11 4 -4 21 -15 16 -26 20 -54 15 -32 -5 -34 -4
-16 9 27 20 49 19 78 -5 l25 -19 28 29 c16 17 33 30 38 30 5 0 21 12 36 28 37
36 116 83 155 92 27 5 31 10 28 36 -6 56 -46 144 -65 144 -56 0 -92 61 -76
126 9 34 6 48 -20 113 -46 110 -37 191 22 191 13 0 17 5 13 16 -3 9 -6 22 -6
29 0 11 -5 11 -27 -1 -16 -7 -37 -14 -47 -14 -18 0 -18 1 3 21 19 18 22 28 17
58 -3 20 -6 44 -6 54 0 9 -6 17 -14 17 -26 0 -25 14 3 56 15 22 31 51 34 65 3
13 22 43 41 65 33 39 34 42 20 69 -14 28 -19 85 -7 85 3 0 15 -7 25 -16 16
-16 22 -15 75 9 32 14 73 28 90 32 18 3 42 19 54 33 36 46 63 51 127 22z m162
-66 c14 -8 17 -13 7 -10 -10 3 -32 6 -48 6 -18 0 -28 4 -24 10 9 14 36 12 65
-6z m6 -48 c28 -13 55 -30 60 -37 6 -12 5 -12 -8 -1 -8 7 -42 23 -74 37 -33
13 -52 24 -44 24 8 1 38 -10 66 -23z m-96 -30 c0 -12 -5 -7 -19 24 -11 24 -11
24 3 6 9 -11 16 -24 16 -30z m65 -29 c23 -22 25 -26 8 -18 -22 11 -63 62 -62
78 0 4 6 -1 12 -11 7 -11 26 -33 42 -49z m161 47 c18 -14 18 -14 -6 -3 -31 14
-36 19 -24 19 6 0 19 -7 30 -16z m-275 -46 l21 -43 -32 38 c-28 33 -61 53 -45
27 3 -6 -4 -10 -16 -10 -14 0 -40 -18 -66 -45 -50 -52 -54 -51 -16 6 30 45 65
68 105 69 23 0 31 -8 49 -42z m28 10 c6 -18 7 -28 2 -23 -10 12 -25 55 -18 55
3 0 10 -15 16 -32z m511 -14 c0 -8 -5 -12 -10 -9 -6 4 -8 11 -5 16 9 14 15 11
15 -7z m-567 -9 c9 -8 20 -30 26 -48 6 -19 20 -51 31 -72 11 -22 20 -48 19
-60 0 -11 -7 1 -15 26 -14 48 -62 103 -95 112 -10 3 -34 -4 -54 -14 -46 -25
-48 -24 -31 9 14 27 66 61 93 62 6 0 18 -7 26 -15z m156 -81 c2 -2 -3 -4 -11
-4 -9 0 -26 9 -39 20 l-24 21 35 -17 c19 -9 37 -18 39 -20z m511 11 c-7 -9
-15 -13 -19 -10 -3 3 1 10 9 15 21 14 24 12 10 -5z m-687 -16 c41 -21 67 -52
73 -88 3 -20 22 -66 40 -104 43 -84 43 -91 1 -36 -46 61 -57 83 -57 119 0 38
-27 93 -43 87 -7 -2 -11 -13 -9 -23 1 -13 -2 -11 -13 8 -9 16 -29 32 -48 37
l-32 9 33 1 c18 1 43 -4 55 -10z m-129 -5 c9 -3 14 -10 11 -14 -3 -4 9 -10 25
-14 17 -3 30 -10 30 -16 0 -13 -69 -44 -78 -36 -3 3 9 11 26 17 41 14 33 29
-10 20 -18 -4 -43 -6 -55 -5 -16 1 -20 -3 -15 -15 5 -14 3 -14 -10 -3 -14 11
-18 10 -27 -5 -6 -10 -11 -13 -11 -8 0 20 32 56 63 69 18 8 33 15 34 15 1 1 8
-2 17 -5z m454 -9 c12 -3 27 -16 33 -28 7 -12 8 -19 4 -15 -5 4 -14 3 -22 -4
-11 -9 -12 -7 -7 8 4 10 3 16 -1 11 -5 -4 -19 0 -33 9 -13 9 -21 11 -18 5 5
-7 -4 -14 -23 -17 -29 -6 -30 -8 -14 -20 15 -11 15 -13 3 -14 -25 0 -43 17
-37 34 4 9 15 16 26 16 10 0 22 7 25 16 3 9 13 13 23 10 10 -2 28 -7 41 -11z
m-286 -99 c4 -42 14 -79 28 -103 l22 -38 -21 20 -22 19 10 -27 c6 -15 18 -41
27 -58 8 -17 13 -33 11 -36 -13 -12 -57 108 -62 167 -3 36 -8 80 -10 98 -2 18
0 30 4 27 5 -2 11 -34 13 -69z m-313 8 c-10 -38 -14 -44 -20 -28 -6 14 -8 10
-8 -18 -1 -20 4 -49 10 -65 8 -21 7 -25 -1 -17 -29 29 -21 127 13 172 17 21
18 7 6 -44z m287 -52 c0 -77 23 -153 59 -192 9 -10 11 -20 5 -30 -8 -13 -13
-13 -30 -2 -24 14 -51 5 -29 -10 9 -6 0 -7 -26 -4 -131 17 -163 17 -199 2 -36
-15 -38 -15 -31 2 15 36 17 52 6 52 -6 0 -10 3 -10 8 1 4 1 18 0 32 -2 24 -2
24 -13 5 -22 -38 -21 -172 1 -137 4 7 15 10 25 6 14 -5 15 -9 4 -15 -10 -7 0
-20 37 -54 28 -24 56 -44 63 -45 7 0 10 -4 7 -10 -3 -5 2 -10 12 -10 16 -1 16
-2 -2 -12 -26 -14 -34 -28 -28 -44 2 -6 0 -15 -5 -18 -14 -8 -35 21 -28 39 4
11 0 15 -11 13 -10 -2 -22 7 -29 20 l-11 23 -6 -22 c-4 -16 3 -30 25 -52 17
-17 31 -38 32 -46 3 -20 46 -35 46 -16 0 10 -6 12 -17 8 -17 -6 -17 -6 -1 10
21 21 25 21 31 0 4 -14 5 -13 6 4 0 12 -4 25 -10 29 -8 4 -6 10 6 17 14 8 15
11 4 18 -10 6 -6 9 14 9 16 0 38 10 52 24 13 13 26 21 29 18 3 -3 6 1 6 9 0 8
10 19 23 24 12 6 21 18 21 28 -2 20 5 21 29 3 12 -9 17 -27 17 -59 0 -26 7
-65 16 -87 22 -56 9 -70 -63 -68 l-55 2 5 34 c7 40 -7 33 -37 -20 -10 -18 -13
-28 -6 -21 9 8 20 5 47 -13 20 -13 40 -24 44 -24 5 0 9 -11 9 -25 0 -16 6 -25
15 -25 8 0 15 5 15 12 0 9 3 9 12 0 17 -17 -8 -33 -40 -25 -12 3 -37 -1 -54
-8 -18 -7 -42 -13 -53 -14 -11 0 -21 -7 -23 -15 -2 -12 9 -15 50 -15 52 0 116
-9 124 -18 3 -2 -2 -10 -11 -17 -11 -9 -15 -9 -15 -1 0 9 -5 9 -21 1 -14 -8
-29 -8 -50 -1 -17 6 -29 6 -29 1 0 -5 -15 -13 -32 -18 -29 -8 -36 -5 -60 20
-18 17 -29 41 -30 62 -2 19 -7 34 -13 33 -5 -1 -9 12 -8 28 2 23 1 26 -6 11
-9 -24 -24 -6 -15 18 4 10 1 16 -10 16 -10 0 -13 6 -9 16 3 9 2 19 -3 23 -10
7 -54 85 -54 95 0 4 4 5 9 1 5 -3 2 9 -7 27 -23 46 -29 286 -7 268 18 -15 20
1 3 19 -10 11 -10 13 0 7 9 -5 12 3 12 30 l0 37 23 -34 c13 -19 29 -33 35 -32
7 2 12 -2 12 -7 0 -5 18 -10 41 -10 22 0 38 4 35 9 -3 5 0 8 8 7 14 -1 86 79
87 97 0 7 4 3 9 -8 7 -16 9 -13 9 17 1 30 9 68 15 68 0 0 1 -35 2 -78z m197
58 c3 -11 1 -18 -4 -14 -5 3 -9 12 -9 20 0 20 7 17 13 -6z m552 11 c3 -5 1
-12 -4 -15 -5 -3 -11 1 -15 9 -6 16 9 21 19 6z m-626 -41 c11 -24 11 -24 -3
-6 -9 11 -16 24 -16 30 0 12 5 7 19 -24z m121 -24 c0 -9 -30 -14 -35 -6 -4 6
3 10 14 10 12 0 21 -2 21 -4z m320 -136 c0 -5 -4 -10 -10 -10 -5 0 -10 5 -10
10 0 6 5 10 10 10 6 0 10 -4 10 -10z m-880 -136 l0 -26 -26 31 c-14 17 -32 31
-40 31 -17 0 -19 17 -1 23 22 8 67 -32 67 -59z m-28 -36 c-20 -20 -14 -45 18
-81 34 -39 39 -67 11 -67 -14 0 -25 17 -44 68 -39 104 -41 110 -28 92 9 -13
12 -11 17 8 6 21 8 22 22 8 13 -12 13 -18 4 -28z m258 -8 c0 -5 -11 -10 -25
-10 -14 0 -25 5 -25 10 0 6 11 10 25 10 14 0 25 -4 25 -10z m340 0 c0 -5 -11
-10 -25 -10 -14 0 -25 5 -25 10 0 6 11 10 25 10 14 0 25 -4 25 -10z m-1058
-20 c-33 -31 -28 -65 18 -110 48 -47 57 -77 36 -119 -15 -27 -15 -30 -1 -24
11 4 8 -6 -10 -33 -26 -38 -28 -58 -9 -109 7 -20 7 -20 -14 -1 -24 21 -31 93
-12 112 6 6 13 34 17 62 4 39 2 58 -11 78 -21 31 -31 26 -15 -9 9 -20 8 -35
-6 -77 -9 -28 -15 -69 -13 -90 4 -45 -10 -39 -29 13 -8 23 -12 26 -12 12 -1
-11 -6 -27 -11 -35 -7 -11 -10 -4 -10 27 0 33 7 50 30 76 35 40 38 72 10 107
-29 36 -26 86 6 115 15 14 34 25 42 25 12 0 11 -5 -6 -20z m1742 -6 c31 -32
33 -67 6 -112 -27 -44 -25 -63 10 -107 21 -27 30 -48 29 -74 0 -34 -1 -35 -10
-11 l-10 25 -14 -32 c-18 -41 -26 -42 -18 -3 3 19 -1 48 -12 76 -11 29 -15 60
-12 85 6 48 0 50 -19 4 -19 -46 -18 -73 6 -120 27 -54 25 -87 -7 -116 -23 -21
-25 -22 -18 -4 20 49 17 81 -10 113 -23 27 -24 32 -9 32 14 0 15 3 6 12 -7 7
-12 29 -12 50 0 31 7 44 40 75 46 43 52 81 20 113 -14 14 -16 20 -6 20 7 0 25
-12 40 -26z m-699 -2 c13 3 22 1 19 -3 -11 -18 -74 -6 -74 13 0 6 6 5 15 -2 8
-7 26 -10 40 -8z m-318 -4 c-7 -4 -21 -8 -32 -8 -11 0 -25 4 -32 8 -6 4 8 7
32 7 24 0 38 -3 32 -7z m-230 -30 c-3 -7 -5 -2 -5 12 0 14 2 19 5 13 2 -7 2
-19 0 -25z m550 -20 c-3 -8 -6 -5 -6 6 -1 11 2 17 5 13 3 -3 4 -12 1 -19z
m503 -67 c0 -18 -4 -14 -24 29 l-17 35 20 -25 c11 -14 21 -31 21 -39z m-1365
19 c-9 -16 -20 -30 -25 -30 -14 0 -12 8 8 35 24 34 36 31 17 -5z m276 -73
c-13 -13 -15 1 -4 30 7 17 8 17 11 -1 2 -10 -1 -23 -7 -29z m49 -2 c0 -25 -14
-34 -24 -16 -8 12 3 41 15 41 5 0 9 -11 9 -25z m708 1 c2 -10 -1 -23 -7 -29
-16 -16 -34 6 -26 33 8 24 28 22 33 -4z m253 -64 c-6 -11 -26 -30 -46 -42 -25
-16 -38 -33 -46 -63 -9 -33 -13 -38 -20 -25 -15 27 7 65 61 104 27 20 50 41
50 47 0 6 3 8 6 5 3 -4 1 -15 -5 -26z m-1162 -38 c17 -10 35 -30 40 -45 10
-29 3 -79 -8 -60 -13 20 -51 -18 -51 -51 0 -26 -2 -29 -15 -18 -22 18 -18 44
10 78 34 40 31 63 -10 99 -19 17 -35 37 -35 44 0 8 8 4 20 -8 11 -12 33 -29
49 -39z m901 32 c0 -8 -4 -18 -10 -21 -5 -3 -10 3 -10 14 0 12 5 21 10 21 6 0
10 -6 10 -14z m451 -67 c8 -16 8 -32 -1 -65 -14 -49 -40 -80 -40 -48 0 16 -4
14 -25 -10 -30 -35 -39 -64 -33 -111 5 -44 1 -44 -18 1 -23 54 -10 91 53 152
46 44 54 56 49 77 -8 31 -1 32 15 4z m-1551 -79 c54 -42 74 -83 67 -133 -3
-22 -11 -46 -19 -53 -11 -11 -12 -4 -10 44 3 52 1 61 -24 85 -30 31 -46 35
-37 10 4 -11 3 -14 -5 -9 -18 11 -46 111 -37 132 6 16 9 14 16 -13 5 -18 26
-45 49 -63z m1330 -23 c0 -12 -5 -29 -10 -37 -8 -12 -10 -10 -10 10 0 14 -7
36 -15 50 -24 42 -17 58 10 27 14 -15 25 -38 25 -50z m-974 16 c-2 -3 -13 0
-23 6 -10 6 -12 11 -5 11 6 0 12 8 13 18 0 12 3 10 10 -7 5 -13 7 -26 5 -28z
m805 4 c-13 -13 -31 0 -24 19 4 11 8 12 20 3 9 -8 10 -16 4 -22z m-486 -46
c53 -5 60 -9 63 -28 3 -17 -3 -26 -23 -33 -15 -6 -32 -7 -38 -3 -6 4 -21 7
-34 8 -13 0 -34 12 -46 26 -26 27 -25 55 2 43 9 -4 43 -10 76 -13z m-462 -11
c3 -11 15 -24 28 -28 12 -5 18 -12 12 -15 -15 -9 -68 8 -67 21 3 36 5 42 13
42 5 0 11 -9 14 -20z m71 7 c20 -14 19 -48 -1 -55 -8 -2 -13 5 -13 17 0 11 -4
23 -10 26 -12 7 -13 25 -2 25 5 0 16 -6 26 -13z m1000 -38 c-18 -20 -49 -25
-59 -9 -3 6 3 10 14 10 11 0 28 12 38 27 15 23 18 24 21 9 2 -10 -4 -26 -14
-37z m-1399 16 c17 -16 25 -34 24 -57 l-1 -33 -11 34 c-7 21 -23 41 -44 53
-38 23 -41 28 -13 28 12 0 32 -11 45 -25z m261 -56 c24 -25 25 -29 9 -29 -33
0 -55 30 -54 74 1 39 1 40 9 12 5 -16 21 -42 36 -57z m1205 -30 c-46 -44 -57
-28 -12 18 16 17 33 46 37 64 l9 34 3 -38 c3 -33 -2 -43 -37 -78z m319 106 c0
-2 -13 -11 -29 -19 -29 -16 -56 -69 -44 -89 3 -6 1 -7 -5 -3 -21 13 -13 65 13
91 21 21 65 35 65 20z m-1181 -67 c-17 -41 -19 -70 -7 -85 6 -7 7 -13 4 -13
-10 0 -36 27 -36 37 0 18 45 114 48 103 2 -6 -2 -25 -9 -42z m-79 18 c0 -2 -7
-7 -16 -10 -8 -3 -12 -2 -9 4 6 10 25 14 25 6z m710 -16 c6 -11 9 -20 7 -20
-2 0 -12 9 -22 20 -10 11 -13 20 -7 20 6 0 16 -9 22 -20z m-735 -173 c14 -43
43 -121 65 -173 23 -53 45 -107 51 -122 8 -25 8 -25 -5 -8 -48 61 -174 413
-160 446 5 10 10 2 16 -25 5 -22 20 -75 33 -118z m775 136 c0 -30 -38 -176
-60 -234 -31 -80 -93 -210 -97 -205 -2 2 20 66 51 142 56 144 86 243 86 288 0
14 5 26 10 26 6 0 10 -8 10 -17z m-805 -199 c41 -117 40 -138 -3 -27 -43 113
-64 193 -56 212 5 11 10 -1 15 -35 5 -29 24 -96 44 -150z m840 136 c-4 -23 -9
-39 -12 -36 -3 2 -2 23 2 46 4 23 9 39 12 36 3 -2 2 -23 -2 -46z m20 -81 c-10
-39 -19 -68 -22 -66 -2 3 3 32 11 65 9 33 17 70 17 83 1 19 2 20 6 6 3 -10 -3
-50 -12 -88z m-935 62 c0 -16 11 -66 24 -112 31 -107 25 -116 -7 -12 -32 101
-41 153 -27 153 5 0 10 -13 10 -29z m-21 -116 c0 -5 -7 6 -14 25 -7 19 -13 53
-13 75 0 35 2 31 13 -25 8 -36 14 -69 14 -75z m191 131 c0 -3 -4 -8 -10 -11
-5 -3 -10 -1 -10 4 0 6 5 11 10 11 6 0 10 -2 10 -4z m810 -72 c-7 -30 -14 -53
-17 -51 -2 3 1 34 8 68 7 35 14 58 17 51 2 -6 -2 -37 -8 -68z m-800 42 c0 -3
-4 -8 -10 -11 -5 -3 -10 -1 -10 4 0 6 5 11 10 11 6 0 10 -2 10 -4z m600 0 c0
-3 -4 -8 -10 -11 -5 -3 -10 -1 -10 4 0 6 5 11 10 11 6 0 10 -2 10 -4z m-853
-49 c1 -39 1 -40 -9 -14 -8 23 -6 57 4 57 2 0 4 -19 5 -43z m773 -22 c-6 -19
-16 -34 -22 -32 -6 1 -13 -4 -16 -12 -3 -9 0 -11 8 -6 23 14 -22 -44 -46 -60
-39 -25 -106 -47 -102 -33 3 7 20 16 38 21 35 9 95 46 87 53 -3 3 -21 -5 -42
-17 -32 -19 -41 -21 -69 -11 -41 15 -98 15 -130 1 -35 -16 -78 3 -121 54 -19
22 -35 35 -35 27 0 -25 87 -99 125 -106 36 -6 59 -24 31 -24 -30 0 -72 22
-109 58 -39 37 -81 102 -56 87 9 -6 10 -1 5 21 -6 24 -3 22 22 -17 40 -62 80
-92 112 -84 64 15 108 16 146 3 36 -13 45 -13 70 0 46 23 92 72 100 106 4 17
9 25 11 19 3 -7 -1 -29 -7 -48z m180 -20 c-12 -36 -24 -64 -26 -62 -3 2 6 34
18 70 12 37 24 65 26 62 2 -2 -6 -34 -18 -70z m137 43 c-3 -7 -5 -2 -5 12 0
14 2 19 5 13 2 -7 2 -19 0 -25z m-1157 -13 c-7 -8 -17 -15 -23 -15 -5 0 -2 9
8 20 21 23 35 19 15 -5z m1235 5 c3 -5 2 -10 -4 -10 -5 0 -13 5 -16 10 -3 6
-2 10 4 10 5 0 13 -4 16 -10z m-1300 -50 c-3 -5 -11 -10 -16 -10 -6 0 -7 5 -4
10 3 6 11 10 16 10 6 0 7 -4 4 -10z m56 -70 c13 -7 25 -7 38 0 27 14 69 -3 80
-32 12 -31 4 -36 -15 -10 -8 12 -26 22 -39 22 l-24 0 17 -39 c15 -35 20 -39
44 -34 53 11 108 -27 108 -74 0 -16 6 -18 34 -15 27 3 40 -2 60 -22 14 -14 26
-35 26 -48 -1 -22 -1 -22 -16 4 -18 34 -43 48 -83 48 -24 0 -32 5 -37 25 -12
49 -99 88 -120 54 -3 -6 -14 6 -24 28 -24 54 -63 83 -112 83 -24 0 -37 4 -33
10 8 13 71 13 96 0z m664 0 c3 -5 -1 -10 -10 -10 -10 0 -15 -6 -12 -13 3 -9
-4 -13 -23 -13 -16 0 -27 3 -24 7 2 4 -5 11 -17 14 -17 6 -19 9 -8 16 19 12
86 11 94 -1z m579 1 c20 7 44 9 62 4 28 -8 28 -8 -15 -16 -59 -11 -89 -33 -99
-72 -8 -29 -12 -32 -43 -29 -51 4 -88 -15 -97 -52 -7 -26 -14 -32 -47 -37 -26
-4 -48 -17 -67 -38 -19 -21 -28 -26 -28 -16 0 43 57 83 100 72 15 -4 20 0 20
13 0 32 12 50 41 65 34 18 71 19 87 3 9 -9 12 -8 12 8 0 10 7 31 14 47 14 26
14 27 -8 27 -13 0 -31 -9 -41 -20 -22 -25 -31 -19 -15 10 14 27 49 41 73 28
11 -6 29 -5 51 3z m-609 -85 c0 -40 -8 -51 -29 -43 -13 5 -14 12 -5 34 6 15
16 31 22 35 7 4 12 8 12 8 0 0 0 -15 0 -34z m-49 -71 c10 -8 14 -15 8 -15 -5
0 -19 7 -30 15 -10 8 -14 15 -8 15 5 0 19 -7 30 -15z m90 0 c-11 -8 -25 -15
-30 -15 -6 0 -2 7 8 15 11 8 25 15 30 15 6 0 2 -7 -8 -15z m-109 -31 c-3 -3
-12 -4 -19 -1 -8 3 -5 6 6 6 11 1 17 -2 13 -5z m133 2 c0 -2 -7 -6 -15 -10 -8
-3 -15 -1 -15 4 0 6 7 10 15 10 8 0 15 -2 15 -4z m-83 -53 c-3 -10 -5 -2 -5
17 0 19 2 27 5 18 2 -10 2 -26 0 -35z m-73 22 c16 -12 17 -15 4 -15 -8 0 -21
7 -28 15 -16 19 -1 19 24 0z m166 -5 c-8 -6 -22 -10 -30 -10 -8 0 -4 6 10 13
27 15 44 12 20 -3z m-55 -80 c-3 -5 -19 -10 -35 -10 -16 0 -32 5 -35 10 -4 6
10 10 35 10 25 0 39 -4 35 -10z m-15 -24 c0 -2 -11 -6 -25 -8 -14 -3 -25 -1
-25 3 0 5 11 9 25 9 14 0 25 -2 25 -4z"/>
<path d="M1024 1997 c-38 -42 -47 -57 -36 -57 13 0 67 68 60 75 -2 3 -13 -5
-24 -18z"/>
<path d="M1194 2015 c-18 -14 -17 -14 9 -4 21 10 33 9 54 0 23 -11 25 -10 13
3 -16 20 -51 20 -76 1z"/>
<path d="M1096 1914 c-5 -14 -4 -15 9 -4 17 14 19 20 6 20 -5 0 -12 -7 -15
-16z"/>
<path d="M1204 1715 c-12 -13 -19 -27 -16 -30 9 -8 40 -6 46 4 4 5 -4 7 -16 4
-14 -3 -19 -1 -12 4 9 7 27 43 21 43 -1 0 -12 -11 -23 -25z"/>
<path d="M1049 1627 c-5 -34 -3 -37 18 -34 13 2 23 6 23 10 -2 57 -3 61 -7 42
-10 -45 -17 -49 -23 -15 l-6 35 -5 -38z"/>
<path d="M1114 1630 c1 -16 4 -30 9 -30 7 0 10 12 9 40 -1 8 4 3 11 -12 15
-38 34 -35 28 5 0 4 4 7 10 7 7 0 9 -10 5 -25 -5 -18 -2 -25 8 -25 10 0 13 6
10 15 -4 8 -1 15 6 15 6 0 9 4 6 9 -4 5 0 12 6 14 7 3 2 6 -12 7 -14 1 -41 3
-61 6 -35 4 -36 3 -35 -26z"/>
<path d="M1240 1646 c0 -2 -7 -21 -15 -42 l-16 -39 20 23 c10 12 24 22 30 22
6 0 11 9 11 20 0 11 -7 20 -15 20 -8 0 -15 -2 -15 -4z m20 -16 c0 -5 -5 -10
-11 -10 -5 0 -7 5 -4 10 3 6 8 10 11 10 2 0 4 -4 4 -10z"/>
<path d="M1001 1434 c0 -11 3 -14 6 -6 3 7 2 16 -1 19 -3 4 -6 -2 -5 -13z"/>
<path d="M1215 1371 c-3 -6 -15 -11 -26 -11 -11 0 -18 -4 -15 -9 3 -5 15 -7
26 -4 21 6 35 21 27 29 -3 3 -8 1 -12 -5z"/>
<path d="M1035 1320 c-3 -5 -1 -10 4 -10 6 0 11 5 11 10 0 6 -2 10 -4 10 -3 0
-8 -4 -11 -10z"/>
<path d="M1082 1226 c7 -8 15 -12 17 -11 5 6 -10 25 -20 25 -5 0 -4 -6 3 -14z"/>
<path d="M1272 1194 c-7 -8 -8 -14 -3 -14 10 0 25 19 20 25 -2 1 -10 -3 -17
-11z"/>
</g>
</svg>
